<?xml version="1.0" encoding="utf-8"?>
<!-- Generator: Adobe Illustrator 15.0.0, SVG Export Plug-In . SVG Version: 6.00 Build 0)  -->
<!DOCTYPE svg PUBLIC "-//W3C//DTD SVG 1.1//EN" "http://www.w3.org/Graphics/SVG/1.1/DTD/svg11.dtd">
<svg version="1.1" id="Calque_1" xmlns="http://www.w3.org/2000/svg" xmlns:xlink="http://www.w3.org/1999/xlink" x="0px" y="0px"
	 width="39px" height="39px" viewBox="0 0 39 39" enable-background="new 0 0 39 39" xml:space="preserve">
<path fill="#FFFFFF" d="M0,0v39h39V0H0z M34.143,28.192c3.191,3.192-1.758,8.142-4.95,4.949c-3.064-3.063-6.128-6.128-9.192-9.192
	c-3.064,3.064-6.128,6.128-9.192,9.192c-3.192,3.192-8.142-1.758-4.95-4.949c3.064-3.064,6.128-6.128,9.192-9.192
	c-3.064-3.064-6.128-6.128-9.192-9.192c-3.192-3.192,1.758-8.142,4.95-4.95c3.064,3.064,6.128,6.128,9.192,9.192
	c3.064-3.064,6.128-6.128,9.192-9.192c3.192-3.192,8.142,1.758,4.95,4.95c-3.064,3.064-6.129,6.128-9.193,9.192
	C28.014,22.064,31.078,25.128,34.143,28.192z"/>
</svg>
